<?xml version="1.0" encoding="UTF-8" standalone="no"?>
<!-- Created with Inkscape (http://www.inkscape.org/) -->

<svg
   xmlns:dc="http://purl.org/dc/elements/1.1/"
   xmlns:cc="http://creativecommons.org/ns#"
   xmlns:rdf="http://www.w3.org/1999/02/22-rdf-syntax-ns#"
   xmlns:svg="http://www.w3.org/2000/svg"
   xmlns="http://www.w3.org/2000/svg"
   xmlns:sodipodi="http://sodipodi.sourceforge.net/DTD/sodipodi-0.dtd"
   xmlns:inkscape="http://www.inkscape.org/namespaces/inkscape"
   width="41.019466mm"
   height="7.6199999mm"
   viewBox="0 0 41.019467 7.6199999"
   version="1.1"
   id="svg8"
   inkscape:version="0.92.2 5c3e80d, 2017-08-06"
   sodipodi:docname="logo.svg">
  <defs
     id="defs2" />
  <sodipodi:namedview
     id="base"
     pagecolor="#000000"
     bordercolor="#666666"
     borderopacity="1.0"
     inkscape:pageopacity="0"
     inkscape:pageshadow="2"
     inkscape:zoom="2.8"
     inkscape:cx="-20.467965"
     inkscape:cy="17.043409"
     inkscape:document-units="mm"
     inkscape:current-layer="text817"
     showgrid="false"
     inkscape:pagecheckerboard="false"
     showborder="true"
     fit-margin-top="0"
     fit-margin-left="0"
     fit-margin-right="0"
     fit-margin-bottom="0"
     inkscape:window-width="1888"
     inkscape:window-height="1022"
     inkscape:window-x="12"
     inkscape:window-y="38"
     inkscape:window-maximized="0" />
  <metadata
     id="metadata5">
    <rdf:RDF>
      <cc:Work
         rdf:about="">
        <dc:format>image/svg+xml</dc:format>
        <dc:type
           rdf:resource="http://purl.org/dc/dcmitype/StillImage" />
        <dc:title></dc:title>
      </cc:Work>
    </rdf:RDF>
  </metadata>
  <g
     inkscape:label="レイヤー 1"
     inkscape:groupmode="layer"
     id="layer1"
     transform="translate(-61.217022,-122.52619)">
    <g
       aria-label="Bouncer"
       style="font-style:normal;font-variant:normal;font-weight:normal;font-stretch:normal;font-size:10.58333302px;line-height:6.61458302px;font-family:'07やさしさゴシック';-inkscape-font-specification:'07やさしさゴシック';letter-spacing:0px;word-spacing:0px;fill:#000000;fill-opacity:1;stroke:none;stroke-width:0.26458332px;stroke-linecap:butt;stroke-linejoin:miter;stroke-opacity:1"
       id="text817">
      <path
         d="m 61.217022,122.52619 h 3.598333 q 0.814917,0 1.407583,0.14817 0.60325,0.13758 0.994834,0.40216 0.391583,0.254 0.582083,0.61384 0.1905,0.35983 0.1905,0.79375 0,0.56091 -0.3175,0.97366 -0.3175,0.41275 -0.9525,0.61384 0.79375,0.15875 1.23825,0.62441 0.455083,0.45509 0.455083,1.17475 0,0.9525 -0.79375,1.51342 -0.783166,0.55033 -2.487083,0.55033 h -3.915833 z m 1.534583,4.02167 v 2.59291 h 2.38125 q 0.79375,0 1.217083,-0.3175 0.423334,-0.3175 0.423334,-0.9525 0,-0.67733 -0.423334,-0.99483 -0.423333,-0.32808 -1.217083,-0.32808 z m 2.06375,-0.79375 q 1.534583,0 1.534583,-1.27 0,-0.56092 -0.391583,-0.85725 -0.381,-0.30692 -1.143,-0.30692 h -2.06375 v 2.43417 z"
         style="font-style:normal;font-variant:normal;font-weight:normal;font-stretch:normal;font-size:10.58333302px;font-family:Prosto;-inkscape-font-specification:'Prosto, Normal';font-variant-ligatures:normal;font-variant-caps:normal;font-variant-numeric:normal;font-feature-settings:normal;text-align:start;writing-mode:lr-tb;text-anchor:start;fill:#ffffff;fill-opacity:1;stroke-width:0.26458332px"
         id="path819"
         inkscape:connector-curvature="0" />
      <path
         d="m 72.65529,129.45827 q 0.338666,0 0.635,-0.127 0.296333,-0.127 0.518583,-0.39158 0.22225,-0.27517 0.34925,-0.70908 0.137583,-0.43392 0.137583,-1.04775 0,-0.61384 -0.137583,-1.04775 -0.127,-0.43392 -0.34925,-0.6985 -0.22225,-0.27517 -0.518583,-0.40217 -0.296334,-0.127 -0.635,-0.127 -0.338667,0 -0.635,0.127 -0.296334,0.127 -0.518584,0.40217 -0.222249,0.26458 -0.359833,0.6985 -0.127,0.43391 -0.127,1.04775 0,0.61383 0.127,1.04775 0.137584,0.43391 0.359833,0.70908 0.22225,0.26458 0.518584,0.39158 0.296333,0.127 0.635,0.127 z m 0,-5.23875 q 0.709083,0 1.30175,0.20109 0.60325,0.1905 1.026583,0.5715 0.423333,0.37041 0.656167,0.93133 0.243416,0.55033 0.243416,1.25942 0,0.71966 -0.243416,1.27 -0.232834,0.55033 -0.656167,0.93133 -0.423333,0.37042 -1.026583,0.56092 -0.592667,0.20108 -1.30175,0.20108 -0.719667,0 -1.312334,-0.20108 -0.592666,-0.1905 -1.015999,-0.56092 -0.423334,-0.381 -0.66675,-0.93133 -0.232834,-0.55034 -0.232834,-1.27 0,-0.70909 0.232834,-1.25942 0.243416,-0.56092 0.66675,-0.93133 0.423333,-0.381 1.015999,-0.5715 0.592667,-0.20109 1.312334,-0.20109 z"
         style="font-style:normal;font-variant:normal;font-weight:normal;font-stretch:normal;font-size:10.58333302px;font-family:Prosto;-inkscape-font-specification:'Prosto, Normal';font-variant-ligatures:normal;font-variant-caps:normal;font-variant-numeric:normal;font-feature-settings:normal;text-align:start;writing-mode:lr-tb;text-anchor:start;fill:#ffffff;fill-opacity:1;stroke-width:0.26458332px"
         id="path821"
         inkscape:connector-curvature="0" />
      <path
         d="m 77.092022,124.43119 h 1.481667 v 3.33375 q 0,0.762 0.381,1.10067 0.381,0.32808 1.100666,0.32808 h 1.375834 v -4.7625 h 1.481666 v 5.50333 h -2.8575 q -1.513416,0 -2.243666,-0.53975 -0.719667,-0.55033 -0.719667,-1.62983 z"
         style="font-style:normal;font-variant:normal;font-weight:normal;font-stretch:normal;font-size:10.58333302px;font-family:Prosto;-inkscape-font-specification:'Prosto, Normal';font-variant-ligatures:normal;font-variant-caps:normal;font-variant-numeric:normal;font-feature-settings:normal;text-align:start;writing-mode:lr-tb;text-anchor:start;fill:#ffffff;fill-opacity:1;stroke-width:0.26458332px"
         id="path823"
         inkscape:connector-curvature="0" />
      <path
         d="m 90.209566,129.93452 h -1.481667 v -3.33375 q 0,-0.762 -0.381,-1.09008 -0.381,-0.33867 -1.100666,-0.33867 H 85.8704 v 4.7625 h -1.481667 v -5.50333 h 2.8575 q 1.513416,0 2.233083,0.55033 0.73025,0.53975 0.73025,1.61925 z"
         style="font-style:normal;font-variant:normal;font-weight:normal;font-stretch:normal;font-size:10.58333302px;font-family:Prosto;-inkscape-font-specification:'Prosto, Normal';font-variant-ligatures:normal;font-variant-caps:normal;font-variant-numeric:normal;font-feature-settings:normal;text-align:start;writing-mode:lr-tb;text-anchor:start;fill:#ffffff;fill-opacity:1;stroke-width:0.26458332px"
         id="path825"
         inkscape:connector-curvature="0" />
      <path
         d="m 94.607437,124.21952 q 0.338667,0 0.677334,0.0635 0.338666,0.0529 0.645583,0.15875 0.3175,0.0952 0.582083,0.24342 0.275167,0.14817 0.47625,0.32808 l -0.423333,0.635 q -0.433917,-0.32808 -0.889,-0.508 -0.4445,-0.17991 -0.963083,-0.17991 -0.381,0 -0.6985,0.127 -0.3175,0.11641 -0.550334,0.39158 -0.232833,0.26458 -0.370416,0.68792 -0.127,0.42333 -0.127,1.016 0,0.59266 0.127,1.016 0.137583,0.42333 0.381,0.6985 0.243416,0.26458 0.582083,0.39158 0.34925,0.11642 0.762,0.11642 0.518583,0 0.963083,-0.17992 0.455084,-0.17992 0.889,-0.508 l 0.423334,0.635 q -0.201084,0.17992 -0.47625,0.32808 -0.264584,0.14817 -0.582084,0.254 -0.306916,0.0953 -0.645583,0.14817 -0.338667,0.0635 -0.677333,0.0635 -0.751417,0 -1.375834,-0.20108 -0.613833,-0.1905 -1.04775,-0.56092 -0.433916,-0.381 -0.677333,-0.93133 -0.232833,-0.55034 -0.232833,-1.27 0,-0.70909 0.232833,-1.25942 0.243417,-0.56092 0.66675,-0.93133 0.423333,-0.381 1.016,-0.5715 0.592667,-0.20109 1.312333,-0.20109 z"
         style="font-style:normal;font-variant:normal;font-weight:normal;font-stretch:normal;font-size:10.58333302px;font-family:Prosto;-inkscape-font-specification:'Prosto, Normal';font-variant-ligatures:normal;font-variant-caps:normal;font-variant-numeric:normal;font-feature-settings:normal;text-align:start;writing-mode:lr-tb;text-anchor:start;fill:#ffffff;fill-opacity:1;stroke-width:0.26458332px"
         id="path827"
         inkscape:connector-curvature="0" />
      <path
         d="m 102.23649,125.17202 h -1.27 q -0.71967,0 -1.100667,0.39159 -0.381,0.381 -0.381,1.143 v 3.22791 h -1.481651 v -3.22791 q 0,-1.0795 0.677327,-1.67217 0.687917,-0.60325 1.968491,-0.60325 h 1.5875 z"
         style="font-style:normal;font-variant:normal;font-weight:normal;font-stretch:normal;font-size:10.58333302px;font-family:Prosto;-inkscape-font-specification:'Prosto, Normal';font-variant-ligatures:normal;font-variant-caps:normal;font-variant-numeric:normal;font-feature-settings:normal;text-align:start;writing-mode:lr-tb;text-anchor:start;fill:#ffffff;fill-opacity:1;stroke-width:0.26458332px"
         id="path831"
         inkscape:connector-curvature="0" />
    </g>
  </g>
</svg>
