<?xml version="1.0" encoding="UTF-8" standalone="no"?>
<!-- Created with Inkscape (http://www.inkscape.org/) -->

<svg
   xmlns:dc="http://purl.org/dc/elements/1.1/"
   xmlns:cc="http://creativecommons.org/ns#"
   xmlns:rdf="http://www.w3.org/1999/02/22-rdf-syntax-ns#"
   xmlns:svg="http://www.w3.org/2000/svg"
   xmlns="http://www.w3.org/2000/svg"
   xmlns:sodipodi="http://sodipodi.sourceforge.net/DTD/sodipodi-0.dtd"
   xmlns:inkscape="http://www.inkscape.org/namespaces/inkscape"
   width="41.426548mm"
   height="9.0147409mm"
   viewBox="0 0 41.426548 9.0147409"
   version="1.1"
   id="svg8"
   inkscape:version="0.92.2 5c3e80d, 2017-08-06"
   sodipodi:docname="logo.svg">
  <defs
     id="defs2" />
  <sodipodi:namedview
     id="base"
     pagecolor="#ffffff"
     bordercolor="#666666"
     borderopacity="1.0"
     inkscape:pageopacity="0.0"
     inkscape:pageshadow="2"
     inkscape:zoom="1.979899"
     inkscape:cx="44.057241"
     inkscape:cy="79.73131"
     inkscape:document-units="mm"
     inkscape:current-layer="layer1"
     showgrid="false"
     inkscape:window-width="1888"
     inkscape:window-height="1022"
     inkscape:window-x="12"
     inkscape:window-y="38"
     inkscape:window-maximized="0"
     fit-margin-top="0"
     fit-margin-left="0"
     fit-margin-right="0"
     fit-margin-bottom="0" />
  <metadata
     id="metadata5">
    <rdf:RDF>
      <cc:Work
         rdf:about="">
        <dc:format>image/svg+xml</dc:format>
        <dc:type
           rdf:resource="http://purl.org/dc/dcmitype/StillImage" />
        <dc:title></dc:title>
      </cc:Work>
    </rdf:RDF>
  </metadata>
  <g
     inkscape:label="レイヤー 1"
     inkscape:groupmode="layer"
     id="layer1"
     transform="translate(-41.444732,-131.97559)">
    <g
       aria-label="Bouncr"
       style="font-style:normal;font-variant:normal;font-weight:normal;font-stretch:normal;font-size:10.58333302px;line-height:6.61458302px;font-family:'07やさしさゴシック';-inkscape-font-specification:'07やさしさゴシック';letter-spacing:0px;word-spacing:0px;fill:#3c0050;fill-opacity:1;stroke:none;stroke-width:0.26458332px;stroke-linecap:butt;stroke-linejoin:miter;stroke-opacity:1"
       id="text12">
      <path
         d="m 41.56226,131.97559 h 3.598333 q 0.814917,0 1.407583,0.14817 0.60325,0.13758 0.994834,0.40217 0.391583,0.254 0.582083,0.61383 0.1905,0.35983 0.1905,0.79375 0,0.56092 -0.3175,0.97367 -0.3175,0.41275 -0.9525,0.61383 0.79375,0.15875 1.23825,0.62442 0.455083,0.45508 0.455083,1.17475 0,0.9525 -0.79375,1.51341 -0.783166,0.55034 -2.487083,0.55034 H 41.56226 Z m 1.534583,4.02167 v 2.59292 h 2.38125 q 0.79375,0 1.217083,-0.3175 0.423334,-0.3175 0.423334,-0.9525 0,-0.67734 -0.423334,-0.99484 -0.423333,-0.32808 -1.217083,-0.32808 z m 2.06375,-0.79375 q 1.534583,0 1.534583,-1.27 0,-0.56092 -0.391583,-0.85725 -0.381,-0.30692 -1.143,-0.30692 h -2.06375 v 2.43417 z"
         style="font-style:normal;font-variant:normal;font-weight:normal;font-stretch:normal;font-size:10.58333302px;font-family:Prosto;-inkscape-font-specification:'Prosto, Normal';font-variant-ligatures:normal;font-variant-caps:normal;font-variant-numeric:normal;font-feature-settings:normal;text-align:start;writing-mode:lr-tb;text-anchor:start;fill:#3c0050;stroke-width:0.26458332px"
         id="path4599"
         inkscape:connector-curvature="0" />
      <path
         d="m 53.000528,138.90768 q 0.338666,0 0.635,-0.127 0.296333,-0.127 0.518583,-0.39159 0.22225,-0.27516 0.34925,-0.70908 0.137583,-0.43392 0.137583,-1.04775 0,-0.61383 -0.137583,-1.04775 -0.127,-0.43392 -0.34925,-0.6985 -0.22225,-0.27517 -0.518583,-0.40217 -0.296334,-0.127 -0.635,-0.127 -0.338667,0 -0.635,0.127 -0.296334,0.127 -0.518584,0.40217 -0.22225,0.26458 -0.359833,0.6985 -0.127,0.43392 -0.127,1.04775 0,0.61383 0.127,1.04775 0.137583,0.43392 0.359833,0.70908 0.22225,0.26459 0.518584,0.39159 0.296333,0.127 0.635,0.127 z m 0,-5.23875 q 0.709083,0 1.301749,0.20108 0.60325,0.1905 1.026584,0.5715 0.423333,0.37042 0.656166,0.93133 0.243417,0.55034 0.243417,1.25942 0,0.71967 -0.243417,1.27 -0.232833,0.55033 -0.656166,0.93133 -0.423334,0.37042 -1.026584,0.56092 -0.592666,0.20108 -1.301749,0.20108 -0.719667,0 -1.312334,-0.20108 -0.592666,-0.1905 -1.016,-0.56092 -0.423333,-0.381 -0.66675,-0.93133 -0.232833,-0.55033 -0.232833,-1.27 0,-0.70908 0.232833,-1.25942 0.243417,-0.56091 0.66675,-0.93133 0.423334,-0.381 1.016,-0.5715 0.592667,-0.20108 1.312334,-0.20108 z"
         style="font-style:normal;font-variant:normal;font-weight:normal;font-stretch:normal;font-size:10.58333302px;font-family:Prosto;-inkscape-font-specification:'Prosto, Normal';font-variant-ligatures:normal;font-variant-caps:normal;font-variant-numeric:normal;font-feature-settings:normal;text-align:start;writing-mode:lr-tb;text-anchor:start;fill:#3c0050;stroke-width:0.26458332px"
         id="path4601"
         inkscape:connector-curvature="0" />
      <path
         d="m 57.43726,133.88059 h 1.481666 v 3.33375 q 0,0.762 0.381,1.10067 0.381,0.32808 1.100667,0.32808 h 1.375833 v -4.7625 h 1.481667 v 5.50334 h -2.8575 q -1.513417,0 -2.243667,-0.53975 -0.719666,-0.55034 -0.719666,-1.62984 z"
         style="font-style:normal;font-variant:normal;font-weight:normal;font-stretch:normal;font-size:10.58333302px;font-family:Prosto;-inkscape-font-specification:'Prosto, Normal';font-variant-ligatures:normal;font-variant-caps:normal;font-variant-numeric:normal;font-feature-settings:normal;text-align:start;writing-mode:lr-tb;text-anchor:start;fill:#3c0050;stroke-width:0.26458332px"
         id="path4603"
         inkscape:connector-curvature="0" />
      <path
         d="m 70.554804,139.38393 h -1.481667 v -3.33375 q 0,-0.762 -0.381,-1.09009 -0.381,-0.33866 -1.100666,-0.33866 h -1.375834 v 4.7625 h -1.481666 v -5.50334 h 2.8575 q 1.513416,0 2.233083,0.55034 0.73025,0.53975 0.73025,1.61925 z"
         style="font-style:normal;font-variant:normal;font-weight:normal;font-stretch:normal;font-size:10.58333302px;font-family:Prosto;-inkscape-font-specification:'Prosto, Normal';font-variant-ligatures:normal;font-variant-caps:normal;font-variant-numeric:normal;font-feature-settings:normal;text-align:start;writing-mode:lr-tb;text-anchor:start;fill:#3c0050;stroke-width:0.26458332px"
         id="path4605"
         inkscape:connector-curvature="0" />
      <path
         d="m 74.952675,133.66893 q 0.338667,0 0.677333,0.0635 0.338667,0.0529 0.645584,0.15875 0.3175,0.0953 0.582083,0.24341 0.275167,0.14817 0.47625,0.32809 l -0.423333,0.635 q -0.433917,-0.32809 -0.889,-0.508 -0.4445,-0.17992 -0.963084,-0.17992 -0.381,0 -0.6985,0.127 -0.3175,0.11642 -0.550333,0.39158 -0.232833,0.26459 -0.370417,0.68792 -0.127,0.42333 -0.127,1.016 0,0.59267 0.127,1.016 0.137584,0.42333 0.381,0.6985 0.243417,0.26458 0.582084,0.39158 0.34925,0.11642 0.762,0.11642 0.518583,0 0.963083,-0.17992 0.455083,-0.17991 0.889,-0.508 l 0.423333,0.635 q -0.201083,0.17992 -0.47625,0.32809 -0.264583,0.14816 -0.582083,0.254 -0.306917,0.0953 -0.645583,0.14816 -0.338667,0.0635 -0.677334,0.0635 -0.751416,0 -1.375833,-0.20108 -0.613833,-0.1905 -1.04775,-0.56092 -0.433917,-0.381 -0.677333,-0.93133 -0.232834,-0.55033 -0.232834,-1.27 0,-0.70908 0.232834,-1.25942 0.243416,-0.56091 0.66675,-0.93133 0.423333,-0.381 1.016,-0.5715 0.592666,-0.20108 1.312333,-0.20108 z"
         style="font-style:normal;font-variant:normal;font-weight:normal;font-stretch:normal;font-size:10.58333302px;font-family:Prosto;-inkscape-font-specification:'Prosto, Normal';font-variant-ligatures:normal;font-variant-caps:normal;font-variant-numeric:normal;font-feature-settings:normal;text-align:start;writing-mode:lr-tb;text-anchor:start;fill:#3c0050;stroke-width:0.26458332px"
         id="path4607"
         inkscape:connector-curvature="0" />
      <path
         d="m 82.680989,134.62143 h -1.27 q -0.719667,0 -1.100667,0.39158 -0.381,0.381 -0.381,1.143 v 3.22792 h -1.481666 v -3.22792 q 0,-1.0795 0.677333,-1.67217 0.687917,-0.60325 1.9685,-0.60325 h 1.5875 z"
         style="font-style:normal;font-variant:normal;font-weight:normal;font-stretch:normal;font-size:10.58333302px;font-family:Prosto;-inkscape-font-specification:'Prosto, Normal';font-variant-ligatures:normal;font-variant-caps:normal;font-variant-numeric:normal;font-feature-settings:normal;text-align:start;writing-mode:lr-tb;text-anchor:start;fill:#3c0050;stroke-width:0.26458332px"
         id="path4609"
         inkscape:connector-curvature="0" />
    </g>
    <path
       style="fill:#d8bce4;fill-rule:evenodd;stroke:#000000;stroke-width:0;stroke-linecap:butt;stroke-linejoin:miter;stroke-miterlimit:4;stroke-dasharray:none;stroke-opacity:1"
       d="m 49.231396,132.39136 h 33.639881 v 0.75595 H 49.231396 Z"
       id="rect18"
       inkscape:connector-curvature="0" />
    <path
       style="fill:#d8bce4;fill-rule:evenodd;stroke:#000000;stroke-width:0;stroke-linecap:butt;stroke-linejoin:miter;stroke-miterlimit:4;stroke-dasharray:none;stroke-opacity:1"
       d="m 41.444733,140.23437 h 41.426548 v 0.75596 H 41.444733 Z"
       id="rect18-7"
       inkscape:connector-curvature="0" />
  </g>
</svg>
